<svg id="eyIBahnvkLc1" xmlns="http://www.w3.org/2000/svg" xmlns:xlink="http://www.w3.org/1999/xlink" viewBox="0 0 300 300" shape-rendering="geometricPrecision" text-rendering="geometricPrecision"><path d="M53.41904,65.41116c0,45.54541-2.95773,91.0282-2.95773,136.64729c0,6.41502-1.97787,47.64431,0,50.28147c1.28068,1.70757,88.52935-1.18309,98.7883-1.18309c25.16079,0,51.84042,1.63476,76.90107,4.14083c1.96204.1962,4.76937,1.60454,5.91547,0c1.65622-2.31871,0-36.67036,0-42.59136c0-37.79561-1.77464-75.70738-1.77464-113.57697c0-4.90927,1.51816-38.79251,0-40.81672-.74825-.99767-2.30219-1.18309-3.54928-1.18309-10.51527,0-26.14462,9.55032-36.6759,12.42248-26.15878,7.13421-58.2939,5.93994-84.59118,3.54928-1.17823-.10711-2.37105.10711-3.54928,0-1.00131-.09103-1.95643-.50052-2.95773-.59155-12.67843-1.15258-26.10108-1.61908-38.45054-5.32392-1.97182-.59155-6.56647.17836-5.91547-1.77464.66695-2.00085,36.12146-11.24557,39.63363-11.83094c28.87786-4.81298,109.5684-19.38877,132.50647,3.54928" transform="translate(.000001 0.000001)" fill="none" stroke="#3f5787" stroke-width="0.6"/><path d="M227.33377,89.07303c-38.21289,0-76.31555,10.35307-113.57697,16.56331-10.53342,1.75557-20.41264-.58983-30.76043,3.54928-6.43353,2.57341-17.94487,13.10018-22.47878,18.92949-10.14847,13.04803-8.8732,55.62949-8.8732,72.1687c0,13.24699-4.82451,35.72916.59155,47.91529c2.90145,6.52827,70.6665.01877,81.0419-.59155c14.62911-.86054,87.43079,7.48293,93.46438,2.95773c5.07486-3.80614,2.95773-40.87294,2.95773-48.50683c0-16.36892-2.05313-33.82387-3.54928-50.28147-2.88138-31.69513,14.15458-107.62746-47.91528-57.97158" transform="translate(.000001 0)" fill="none" stroke="#3f5787" stroke-width="0.6"/><path d="M53.419041,125.74893c4.34861-21.74306,51.947199-68.0834,70.394049-44.36601c25.41039,32.6705-57.68305,26.13872-68.61942,44.36601" transform="translate(0 0.000001)" fill="none" stroke="#3f5787" stroke-width="0.6"/></svg>
