<svg id="ecxRYQE2HlF1" xmlns="http://www.w3.org/2000/svg" xmlns:xlink="http://www.w3.org/1999/xlink" viewBox="0 0 300 300" shape-rendering="geometricPrecision" text-rendering="geometricPrecision"><path d="M50.1089,100.87428c0,23.65044,1.23962,47.64772,3.5849,71.10054c2.21005,22.10048-8.26947,85.97713-.59748,105.1571c3.77746,9.44366,29.49005,5.37735,37.04398,5.37735c35.81013,0,74.17672-4.39158,109.33949-1.19497c6.33152.57559,37.77863,5.11927,40.0314-2.38993c10.3205-34.40164-2.38993-101.88509-2.38993-140.40863c0-4.76619.45021-43.57738-1.19497-44.81126-3.43411-2.57558-39.71698,2.46331-46.00623,2.98742-31.55272,2.62939-65.03739-1.79245-96.79233-1.79245-13.30192,0-24.22067-3.41017-37.04398-5.97483-1.99161-.39832-5.97484.83609-5.97484-1.19497c0-1.1613,1.93021-1.3119,2.98742-1.79245c13.01212-5.9146,29.77731-4.9103,43.6163-5.97483c30.73164-2.36397,120.26522-15.30652,139.81114,10.7547" transform="translate(0 0.000001)" fill="none" stroke="#3f5787" stroke-width="0.6"/><path d="M32.18439,14.83665c50.38563,0,49.1125,11.35058,66.32067,54.371c1.66153,4.15384,13.59911,22.35715,11.35219,26.28928-10.58782,18.52868-29.51217-42.95116-31.66663-47.79868-16.10642-36.23946-43.82844-23.514-47.79868-27.48424-.71809-.71809,1.5058-2.53326.59748-2.98742-1.84798-.92399-3.48234,10.82267,0,2.98742.8129-1.82904,2.59903-5.97484.59748-5.97484-2.30479,0-1.79245,5.12002-1.79245,5.97484" transform="translate(.000001 0)" fill="none" stroke="#3f5787" stroke-width="0.6"/><path d="M50.10891,114.018914c0-5.97484,0-17.327003,0-23.301843" fill="none" stroke="#3f5787" stroke-width="0.6"/><path d="M114.63712,36.94354c-.54682,2.73409-11.00999,23.88003,2.38993,17.92451c8.42226-3.74323,2.1751-15.15192-1.79245-19.11947" transform="translate(.000001 0.000001)" fill="none" stroke="#3f5787" stroke-width="0.6"/><path d="M112.84467,64.42778c0,4.38617-13.02347,21.46178-.59748,22.70437c8.81207.88121,2.5316-17.81363,1.79245-21.50941" fill="none" stroke="#3f5787" stroke-width="0.6"/><path d="M121.80692,66.22023c0,5.1909-4.27462,25.19536,1.19497,26.28928c10.54577,2.10915,1.84786-18.38346.59748-21.50941" fill="none" stroke="#3f5787" stroke-width="0.6"/><path d="M131.96414,41.12593c0,3.1319-7.99817,28.7064,1.79245,20.31444c4.13123-3.54105-.91043-17.09932-1.79245-21.50941" fill="none" stroke="#3f5787" stroke-width="0.6"/><path d="M164.82573,61.44037c15.52392-3.10479-7.04019-10.25841-6.57232-14.93709.75118-7.51182,14.33893-5.38071,13.14464-11.35219-.78521-3.92605-9.84578-6.98294-13.14464-8.96225" transform="translate(.000001 0)" fill="none" stroke="#3f5787" stroke-width="0.6"/><path d="M185.14017,63.8303c16.0505,0-3.12682-14.08466-4.77987-16.72954-3.87086-6.19337,7.41494-8.15536-.59748-21.50941" fill="none" stroke="#3f5787" stroke-width="0.6"/><path d="M203.66216,63.23282c7.89867-7.89867-4.40429-11.64232-5.97483-17.92451-1.40639-5.62557,5.10855-9.16385-1.79245-14.3396" transform="translate(.000001 0)" fill="none" stroke="#3f5787" stroke-width="0.6"/></svg>
