<svg id="euo3wmNJQEi1" xmlns="http://www.w3.org/2000/svg" xmlns:xlink="http://www.w3.org/1999/xlink" viewBox="0 0 300 300" shape-rendering="geometricPrecision" text-rendering="geometricPrecision">
<path d="M52.23594,165.9741c0,8.80951-1.59441,78.53706,0,80.45036.65779.78934,6.02374.63182,6.50701.59155c25.00157-2.08346,49.94621-4.11688,75.12643-5.91547c13.98192-.99871,87.49092,4.68101,94.64748.59155.92195-.52683-4.92232.45318-4.73237-.59155c1.69606-9.32834.8473-26.172469,0-35.492809-.9859-10.84485.9318-18.395667,0-29.577337-.71679-8.60155-.53328-17.498055,0-26.030395c1.07095-17.13523,6.91201-40.689219,0-57.969229-1.07031-2.67577,2.24257-.14304,0-.59155-10.40354-2.08071-45.69545-1.50875-56.19694.59155-27.42804,5.48561-36.85472,46.31947-53.83075,63.2955-16.54235,16.54235-43.34045,8.43147-63.2955,12.42248" transform="translate(0 0.000001)" fill="none" stroke="#3f5787" stroke-width="0.6"/></svg>
